<?xml version="1.0" encoding="UTF-8"?>
<svg id="Layer_1" data-name="Layer 1" xmlns="http://www.w3.org/2000/svg" version="1.1" viewBox="0 0 120.29 151">
  <defs>
    <style>
      .cls-1 {
        fill: #aaaaaa;
        stroke-width: 0px;
      }
    </style>
  </defs>
  <path class="cls-1" d="M96.75,130.15c.17-.43.09-.91-.2-1.27l-4.19-5.3-.58-.73-.56-.74-1.12-1.49-2.24-2.98c-1.51-1.97-2.95-4.01-4.42-6.02l-.72-1c6.21-6.26,14.4-28.54-.14-53.27C66.76,30.42,25.93,17.76,25.93,17.76c0,0-8.88,41.87,6.93,68.8,13.93,23.73,36.12,28.1,45.33,26.34l1.04,1.61c1.37,2.11,2.71,4.23,4.14,6.31l2.11,3.13,1.06,1.57.53.78.55.77,3.98,5.61c.28.39.74.59,1.22.54,2.49-.27,3.54-2.05,3.94-3.08Z"/>
</svg>